<?xml version="1.0" encoding="UTF-8"?>
<svg width="128px" height="64px" viewBox="0 0 128 64" version="1.1" xmlns="http://www.w3.org/2000/svg" xmlns:xlink="http://www.w3.org/1999/xlink">
    <title>00 Logo / everis / white</title>
    <defs>
        <filter id="filter-1">
            <feColorMatrix in="SourceGraphic" type="matrix" values="0 0 0 0 1.000000 0 0 0 0 1.000000 0 0 0 0 1.000000 0 0 0 1.000000 0"></feColorMatrix>
        </filter>
        <polygon id="path-2" points="0.200150893 0.000105034228 79.3229814 0.000105034228 79.3229814 55.3002923 0.200150893 55.3002923"></polygon>
        <polygon id="path-4" points="0 0.1 83.4380814 0.1 83.4380814 8 0 8"></polygon>
    </defs>
    <g id="Elements" stroke="none" stroke-width="1" fill="none" fill-rule="evenodd">
        <g id="everis" filter="url(#filter-1)">
            <g>
                <g id="Fill-1-Clipped" transform="translate(47.677019, -0.000160)">
                    <mask id="mask-3" fill="white">
                        <use xlink:href="#path-2"></use>
                    </mask>
                    <g id="path-1"></g>
                    <path d="M79.0600938,6.91832 C80.5728391,21.29512 75.9112118,67.72952 55.8641311,52.14232 C27.5177832,30.10232 5.86100683,58.31352 0.61046646,40.68712 C-1.67067019,33.01752 5.03492609,6.34872 34.0302801,5.61112 C61.0890317,4.92152 77.545746,-7.45848 79.0600938,6.91832 Z M71.052399,12.92736 C70.469094,12.92896 69.891399,13.03696 69.345753,13.24496 C68.787287,13.44496 68.290517,13.78736 67.903517,14.23696 C67.510107,14.69136 67.304989,15.27296 67.289765,15.97296 C67.307392,16.73296 67.523728,17.35696 67.933964,17.83696 C68.360225,18.31856 68.874622,18.71296 69.451517,18.99776 C70.045237,19.30176 70.639759,19.57696 71.233479,19.82976 C71.819188,20.08016 72.311951,20.36096 72.70456,20.67776 C73.084349,20.98176 73.27825,21.36816 73.293473,21.84016 C73.285461,22.24096 73.169281,22.55056 72.946535,22.78816 C72.716579,23.03696 72.42733,23.22256 72.105231,23.32816 C71.76951,23.44016 71.4402,23.49936 71.116498,23.49936 C70.277597,23.51136 69.628591,23.33376 69.159865,22.97536 C68.706361,22.63056 68.401088,22.03056 68.262473,21.15456 L68.262473,21.15456 L68.240038,21.02016 L67.095063,21.02416 L67.17038,23.38176 C67.656734,23.68416 68.262473,23.93056 68.98279,24.11936 C69.692691,24.30976 70.423424,24.40976 71.158163,24.4185913 C71.836815,24.42016 72.468194,24.30016 73.049094,24.04736 C73.619579,23.80656 74.106734,23.40496 74.453672,22.89296 C74.814231,22.36976 74.995312,21.70416 75.00733,20.90736 C74.990504,20.24576 74.774169,19.68336 74.357523,19.22816 C73.952094,18.78176 73.44651,18.39936 72.850386,18.08176 C72.255865,17.76656 71.663747,17.47616 71.066821,17.20416 C70.480312,16.93616 69.986747,16.65296 69.594939,16.35296 C69.210343,16.06016 69.018045,15.72496 69.001219,15.34496 C69.030063,14.78176 69.238386,14.37616 69.622983,14.11376 C70.019597,13.84496 70.488324,13.70416 70.967467,13.71056 C71.596442,13.71776 72.120455,13.90336 72.547517,14.26656 C72.957753,14.61376 73.226169,15.09376 73.347156,15.71136 L73.347156,15.71136 L73.371194,15.83856 L74.382361,15.83856 L74.382361,13.74656 L74.287815,13.70896 C73.779026,13.50656 73.257417,13.33056 72.720585,13.17856 C72.178144,13.02096 71.617274,12.93696 71.052399,12.92736 Z M45.1610571,12.92736 C44.1258521,12.94256 43.1972123,13.21616 42.3871564,13.75056 C41.5746968,14.28416 40.9385105,14.99616 40.4721875,15.88096 C40.0066658,16.76656 39.7678956,17.74496 39.7614856,18.81376 C39.7614856,19.86656 39.9425664,20.81456 40.3047279,21.65696 C40.6708956,22.50016 41.2157403,23.16736 41.9376596,23.66336 C42.6691937,24.15776 43.5721937,24.40656 44.6458583,24.41856 C45.7443614,24.40176 46.7274856,24.10256 47.5960322,23.52096 C48.4501564,22.94416 49.1808894,22.20256 49.7457651,21.34096 L49.7457651,21.34096 L49.8322993,21.21136 L49.2666223,20.81136 L49.1800881,20.92336 C48.7642434,21.43056 48.2658707,21.86496 47.7050012,22.20816 C47.1048707,22.58576 46.4991316,22.78176 45.8821751,22.80176 C44.8846285,22.78576 44.0921999,22.53536 43.487262,22.05776 C42.8775167,21.57856 42.4360322,20.95056 42.1628086,20.16976 C41.8919887,19.38016 41.7613863,18.55056 41.7758086,17.71696 L41.7758086,17.71696 L49.5983366,17.71696 L49.5951316,17.54976 C49.5486596,16.14656 49.1536471,15.02656 48.3932682,14.20256 C47.6192682,13.36656 46.5391937,12.94336 45.1610571,12.92736 Z M23.5876099,12.92736 C22.5483987,12.94256 21.6237651,13.21616 20.8121068,13.75056 C19.9988459,14.28416 19.364262,14.99616 18.9003428,15.88096 C18.4324173,16.76656 18.1952496,17.74496 18.183231,18.81376 C18.1872372,19.86656 18.3667155,20.81456 18.7296782,21.65696 C19.0974484,22.50016 19.6390881,23.16736 20.3642123,23.66336 C21.0917403,24.15776 21.9995478,24.40656 23.0692061,24.41856 C24.166908,24.40176 25.1508335,24.10256 26.01938,23.52096 C26.8743055,22.94416 27.6050384,22.20336 28.169113,21.34096 L28.169113,21.34096 L28.2532434,21.21136 L27.6923738,20.81136 L27.6010322,20.92336 C27.1859887,21.43056 26.6892186,21.86496 26.1307527,22.20816 C25.5306223,22.58576 24.9232807,22.78176 24.3071254,22.80176 C23.3087776,22.78576 22.5147465,22.53536 21.9114111,22.05776 C21.3016658,21.57856 20.86579,20.95056 20.5917651,20.16976 L20.5917651,20.16976 C20.3225478,19.41296 20.1927465,18.59296 20.2007589,17.71696 L20.2007589,17.71696 L28.0184794,17.71696 L28.0144732,17.54976 C27.9696037,16.14656 27.5745912,15.02656 26.8158148,14.20256 C26.0442186,13.36656 24.9617403,12.94336 23.5876099,12.92736 Z M63.986243,12.92736 L63.809169,12.95376 C62.576057,13.14896 61.334933,13.29056 60.089001,13.37856 L60.089001,13.37856 L59.949585,13.38816 L59.949585,14.12976 L60.10102,14.12816 C60.864604,14.11536 61.334933,14.20736 61.543256,14.37136 C61.751579,14.53456 61.862951,14.90656 61.839715,15.52976 L61.839715,15.52976 L61.839715,21.16576 C61.866958,21.92576 61.760392,22.39136 61.556076,22.60336 C61.353361,22.80816 60.864604,22.93456 60.051343,22.96016 L60.051343,22.96016 L59.904715,22.96576 L59.90151,23.70016 L65.656833,23.70016 L65.656833,22.96576 L65.510206,22.96016 C64.801908,22.93456 64.378051,22.80736 64.198573,22.60576 C64.013486,22.39296 63.917337,21.92816 63.940573,21.16576 L63.940573,21.16576 L63.9408602,20.9770469 C63.9447226,19.4360756 63.986243,12.92736 63.986243,12.92736 L63.986243,12.92736 Z M53.572498,12.92736 L53.397827,12.97136 C52.882628,13.09856 52.3425912,13.19696 51.7737092,13.26096 C51.1751813,13.32656 50.5766533,13.38336 49.9765229,13.43376 L49.9765229,13.43376 L49.8322993,13.44576 L49.8322993,14.18176 L49.9893428,14.18016 C50.770554,14.17616 51.2368769,14.25776 51.4227651,14.39216 C51.6102558,14.52816 51.7048024,14.80176 51.6775602,15.24656 L51.6775602,15.24656 L51.6775602,21.89216 C51.7048024,22.34336 51.6102558,22.61616 51.4227651,22.74976 C51.2368769,22.88816 50.770554,22.96576 49.9893428,22.96016 L49.9893428,22.96016 L49.8322993,22.96016 L49.8322993,23.70016 L55.963405,23.70016 L55.965809,22.96016 L55.813573,22.96016 C55.212641,22.96256 54.771156,22.93056 54.485113,22.87296 C54.189455,22.80896 54.019591,22.69936 53.945076,22.56336 C53.863349,22.41616 53.820883,22.19616 53.830498,21.89376 L53.830498,21.89376 L53.848125,15.90736 C54.231119,15.53216 54.662188,15.16656 55.146138,14.81056 C55.634094,14.44816 56.154902,14.25536 56.706958,14.22736 C57.013032,14.23376 57.227765,14.35456 57.367181,14.58736 C57.504194,14.81776 57.599542,15.07136 57.65002,15.33456 L57.65002,15.33456 L57.674858,15.45776 L59.181194,15.45776 L59.182796,13.31216 L59.086647,13.26896 C58.909573,13.19536 58.695641,13.12336 58.448057,13.06096 C58.177237,12.98976 57.950486,12.95456 57.767802,12.94976 C56.959349,12.96416 56.170125,13.20016 55.485865,13.63216 L55.485865,13.63216 C54.864101,14.02496 54.287206,14.48736 53.768001,15.00976 L53.768001,15.00976 L53.572498,12.92736 Z M36.1118273,12.92736 L36.1118273,13.68896 L36.2568521,13.69696 C36.6855167,13.71456 36.9795726,13.78736 37.1422248,13.89456 C37.3225043,14.00976 37.3946161,14.14896 37.3898086,14.30656 C37.3898086,14.52016 37.3561564,14.73216 37.2904546,14.93536 C37.2295602,15.14656 35.3129887,20.50896 34.7697465,22.03456 C34.5335909,21.3834442 34.0427423,20.0301367 33.5491201,18.6678344 L33.3643738,18.1579032 C32.7513995,16.4657534 32.1832944,14.8949389 32.1520881,14.79936 C32.085585,14.59136 32.0567403,14.44256 32.0599453,14.35456 C32.0431192,14.18016 32.1192372,14.00976 32.2610571,13.90656 C32.4004732,13.80016 32.6817092,13.72256 33.1288024,13.69776 L33.1288024,13.69776 L33.2746285,13.68576 L33.2746285,12.92736 L33.1135788,12.93536 C33.0886067,12.9366933 32.9369271,12.9375822 32.7014695,12.9381378 L30.3881055,12.9381476 C30.3088451,12.9380729 30.2300113,12.9379947 30.1519477,12.9379138 L29.4794408,12.9371378 C29.4090888,12.9370489 29.3405372,12.93696 29.2741294,12.936872 L28.7436165,12.936128 C28.6931628,12.9360533 28.6458833,12.9359822 28.6021214,12.9359156 L28.2524422,12.93536 L28.2524422,13.68576 L28.3918583,13.69776 C28.916672,13.73616 29.3204981,14.02976 29.5897155,14.34416 C29.8669453,14.66096 30.1073179,15.13296 30.3204484,15.75696 L30.3204484,15.75696 L33.252995,23.70016 L35.264113,23.67856 L38.300821,15.01376 C38.4778956,14.57616 38.6854173,14.17616 38.9145726,14.00816 C39.1437279,13.83936 39.3824981,13.74096 39.6308832,13.70336 L39.6308832,13.70336 L39.7614856,13.68576 L39.7614856,12.93536 L39.7614856,12.93536 L39.5317567,12.9358761 C39.4956978,12.9359539 39.4559675,12.9360384 39.4129837,12.936128 L38.9495727,12.9370312 C38.8908302,12.9371377 38.8300882,12.9372447 38.7677647,12.9373507 L38.3781893,12.937962 C38.3112116,12.9380577 38.2434884,12.9381494 38.1754377,12.9382354 L36.6933304,12.938432 C36.460624,12.93792 36.3033242,12.93696 36.2736782,12.93536 L36.2736782,12.93536 L36.1118273,12.92736 Z M44.7972931,13.84976 C45.6714484,13.87536 46.2683738,14.17616 46.6064981,14.73776 C46.9398148,15.29936 47.1297092,15.98016 47.1673676,16.79216 L47.1673676,16.79216 L41.7894297,16.79216 C41.8671502,16.04736 42.177231,15.34576 42.6764049,14.78736 C43.1964111,14.19616 43.8991005,13.88256 44.7972931,13.84976 Z M23.2230446,13.84976 C24.0980012,13.87536 24.6957279,14.17616 25.0298459,14.73776 C25.3647651,15.29936 25.5522558,15.98016 25.5923179,16.79216 L25.5923179,16.79216 L20.21438,16.79216 C20.2929018,16.04736 20.6029825,15.34656 21.100554,14.78736 C21.6229639,14.19616 22.3256533,13.88256 23.2230446,13.84976 Z M62.77797,7.90016 C62.366132,7.91136 62.022399,8.04736 61.754784,8.31936 C61.486368,8.59136 61.349355,8.93216 61.340542,9.33536 C61.349355,9.73616 61.486368,10.08016 61.754784,10.35216 C62.022399,10.62496 62.366132,10.76256 62.77797,10.77296 C63.193815,10.76256 63.539951,10.62416 63.807566,10.35216 L63.807566,10.35216 C64.072778,10.07936 64.220206,9.71456 64.2186297,9.33536 C64.211392,8.93216 64.071976,8.59216 63.807566,8.32016 C63.539951,8.04736 63.194616,7.91136 62.77797,7.90016 Z" id="Combined-Shape" fill="#242528" fill-rule="nonzero" mask="url(#mask-3)"></path>
                </g>
                <g id="Fill-6-Clipped" transform="translate(0.403727, 55.199840)">
                    <mask id="mask-5" fill="white">
                        <use xlink:href="#path-4"></use>
                    </mask>
                    <g id="path-3"></g>
                    <path d="M54.6558578,1.3664 C54.319336,0.9264 53.7825037,0.7024 53.2368578,0.7024 C51.970895,0.7024 51.0735037,1.776 51.0735037,2.9728 C51.0735037,4.2392 51.9628826,5.2432 53.2368578,5.2432 C53.9267273,5.2432 54.4787832,4.9736 54.8802056,4.48 L55.3857894,4.888 C54.8810068,5.5456 54.143864,5.8456 53.2368578,5.8456 C51.610336,5.8456 50.3507832,4.6328 50.3507832,2.9728 C50.3507832,1.3664 51.5534478,0.1 53.2368578,0.1 C54.0068516,0.1 54.7600193,0.3544 55.2415658,0.9568 L54.6558578,1.3664 Z M81.6793547,6.9192 C81.438982,7.5616 81.1946031,8 80.4646714,8 C80.2924043,8 80.0816776,7.9848 79.9182242,7.9024 L79.9959447,7.3504 C80.1233422,7.3992 80.2555472,7.4168 80.4238081,7.4168 C80.823628,7.4168 80.9718578,7.1632 81.1032615,6.7912 L81.3500441,6.0776 L79.8429075,2.2544 L80.5504043,2.2544 L81.6801559,5.2312 L81.6921745,5.2312 L82.7746528,2.2552 L83.4380814,2.2552 L81.6801559,6.9192 L81.6793547,6.9192 Z M76.2765783,3.1736 C76.2765783,2.8536 76.2453298,2.576 76.2453298,2.344 L76.7621311,2.344 C76.7621311,2.5312 76.7781559,2.7256 76.7781559,2.9208 L76.7901745,2.9208 C76.9360006,2.576 77.3430317,2.2544 77.879864,2.2544 C78.7371932,2.2544 79.1225907,2.8368 79.1225907,3.6832 L79.1225907,5.8456 L78.577746,5.8456 L78.577746,3.7432 C78.577746,3.1616 78.3413795,2.7928 77.8309882,2.7928 C77.125895,2.7928 76.8166155,3.3408 76.8166155,4.1416 L76.8166155,5.8456 L76.2765783,5.8456 L76.2765783,3.1736 Z M72.0788702,2.78 C72.4145907,2.424 72.9049509,2.2544 73.384895,2.2544 C74.3535969,2.2544 74.7590255,2.736 74.7590255,3.7008 L74.7590255,5.1672 C74.7590255,5.3656 74.780659,5.5848 74.8071,5.7592 L74.2822863,5.7592 C74.2462304,5.6072 74.2462304,5.3952 74.2462304,5.2472 L74.2342118,5.2472 C74.006659,5.6256 73.5948205,5.8536 73.153336,5.8456 C72.4842988,5.8456 71.9306404,5.4968 71.9306404,4.832 C71.9306404,3.7008 73.1941994,3.636 73.9994478,3.636 L74.211777,3.636 L74.211777,3.532 C74.211777,3.036 73.9105099,2.78 73.3961124,2.78 C73.0491745,2.78 72.6830068,2.9048 72.4201994,3.152 L72.0788702,2.78 Z M73.6669323,4.1168 C72.971454,4.1168 72.5203547,4.3128 72.5203547,4.7744 C72.5203547,5.204 72.8280317,5.3664 73.2430752,5.3664 C73.8760565,5.3664 74.2013609,4.8912 74.2125783,4.336 L74.2125783,4.1168 L73.6669323,4.1168 Z M66.8948329,2.352 L67.4589075,2.352 L67.4589075,2.9048 L67.4749323,2.9048 C67.7874168,2.4984 68.2040627,2.2544 68.697628,2.2544 C69.7704913,2.2544 70.4908081,3.096 70.4908081,4.2512 C70.4908081,5.3872 69.7432491,6.2456 68.7881683,6.2456 C68.1728143,6.2456 67.6872615,5.9072 67.4749323,5.476 L67.4589075,5.476 L67.4589075,8 L66.8948329,8 L66.8948329,2.352 Z M68.671187,5.6616 C69.4043236,5.6616 69.8778578,5.0488 69.8778578,4.2512 C69.8778578,3.456 69.4043236,2.8384 68.671187,2.8384 C67.9380503,2.8384 67.4589075,3.456 67.4589075,4.2512 C67.4589075,5.0488 67.9380503,5.6616 68.671187,5.6616 L68.671187,5.6616 Z M60.4528453,3.1736 C60.4528453,2.8536 60.4207957,2.576 60.4207957,2.344 L61.0225286,2.344 C61.0225286,2.5312 61.0369509,2.7256 61.0369509,2.9208 L61.0529758,2.9208 C61.2260441,2.576 61.6971745,2.2544 62.3221435,2.2544 C63.1434168,2.2544 63.4038205,2.6784 63.5256093,2.9208 C63.8004354,2.508 64.1537832,2.2544 64.7274727,2.2544 C65.8171621,2.2544 66.1753174,2.8128 66.1753174,3.7216 L66.1753174,5.8456 L65.542336,5.8456 L65.542336,3.7512 C65.542336,3.2632 65.3556466,2.7928 64.6161,2.7928 C64.0776652,2.7928 63.6313733,3.1968 63.6313733,3.8256 L63.6313733,5.8456 L62.9983919,5.8456 L62.9983919,3.8624 C62.9983919,3.0912 62.7828578,2.7928 62.2668578,2.7928 C61.4455845,2.7928 61.086628,3.3408 61.086628,4.1416 L61.086628,5.8456 L60.4528453,5.8456 L60.4528453,3.1736 Z M57.9032925,2.2544 C58.9401,2.2544 59.7012801,2.9856 59.7012801,4.0512 C59.7012801,5.1168 58.9401,5.8456 57.9032925,5.8456 C56.8696901,5.8456 56.105305,5.1168 56.105305,4.0512 C56.105305,2.9856 56.8696901,2.2544 57.9032925,2.2544 L57.9032925,2.2544 Z M57.9032925,5.32 C58.6316217,5.32 59.098746,4.7688 59.098746,4.0512 C59.098746,3.3352 58.6316217,2.7792 57.9032925,2.7792 C57.1773671,2.7792 56.7118453,3.3352 56.7118453,4.0512 C56.7118453,4.7688 57.1773671,5.3208 57.9032925,5.3208 L57.9032925,5.32 Z M44.8077894,0.1 L45.808541,0.1 L48.1930379,5.8456 L46.8285224,5.8456 L46.3573919,4.628 L44.2268888,4.628 L43.7701807,5.8456 L42.4385161,5.8456 L44.8077894,0.1 Z M45.2733112,1.7712 L44.6066776,3.5576 L45.9455534,3.5576 L45.2733112,1.7712 Z M40.3985534,1.2192 L38.8417398,1.2192 L38.8417398,0.1 L43.1580317,0.1 L43.1580317,1.22 L41.6004168,1.22 L41.6004168,5.8456 L40.3985534,5.8456 L40.3985534,1.2192 Z M36.1752056,0.1 L37.1743547,0.1 L39.5612553,5.8456 L38.1983422,5.8456 L37.7240068,4.628 L35.5951062,4.628 L35.1367957,5.8456 L33.8067335,5.8456 L36.1752056,0.1 Z M36.6415286,1.7712 L35.9732925,3.5576 L37.314572,3.5576 L36.6415286,1.7712 Z M28.7717273,0.1 L30.5753236,0.1 C32.3348516,0.1 33.8067335,0.888 33.8067335,2.9864 C33.8067335,4.8456 32.3652988,5.8456 30.7395783,5.8456 L28.7717273,5.8456 L28.7717273,0.1 Z M29.9759944,4.6784 L30.5985596,4.6784 C31.717895,4.6784 32.5600006,4.2288 32.5600006,2.9256 C32.5600006,1.7976 31.7026714,1.2688 30.6850938,1.2688 L29.9759944,1.2688 L29.9759944,4.6784 Z M22.4170752,1.2192 L20.8594602,1.2192 L20.8594602,0.1 L25.1749509,0.1 L25.1749509,1.22 L23.620541,1.22 L23.620541,5.8456 L22.4170752,5.8456 L22.4170752,1.2192 Z M18.0983795,1.2192 L16.5439696,1.2192 L16.5439696,0.1 L20.8594602,0.1 L20.8594602,1.22 L19.3018453,1.22 L19.3018453,5.8456 L18.0983795,5.8456 L18.0983795,1.2192 Z M10.7894478,0.1 L12.3823174,0.1 L14.640218,4.0944 L14.6546404,4.0944 L14.6546404,0.1 L15.824454,0.1 L15.824454,5.8456 L14.2932801,5.8456 L11.9752863,1.7544 L11.9592615,1.7544 L11.9592615,5.8456 L10.7894478,5.8456 L10.7894478,0.1 Z M4.3426528,3.1736 C4.3426528,2.8536 4.31541056,2.576 4.31541056,2.344 L4.83141056,2.344 C4.83141056,2.5312 4.8474354,2.7256 4.8474354,2.9208 L4.85945404,2.9208 C5.00688261,2.576 5.41311242,2.2544 5.94914348,2.2544 C6.8088764,2.2544 7.19267143,2.8368 7.19267143,3.6832 L7.19267143,5.8456 L6.64622422,5.8456 L6.64622422,3.7432 C6.64622422,3.1616 6.41146025,2.7928 5.90106894,2.7928 C5.19597578,2.7928 4.88829876,3.3408 4.88829876,4.1416 L4.88829876,5.8456 L4.3426528,5.8456 L4.3426528,3.1736 Z M0.146547205,2.78 C0.485472671,2.424 0.976634161,2.2544 1.45417453,2.2544 C2.42367764,2.2544 2.82910621,2.736 2.82910621,3.7008 L2.82910621,5.1672 C2.82910621,5.3656 2.84913727,5.5848 2.87718075,5.7592 L2.35316832,5.7592 C2.31550994,5.6072 2.31550994,5.3952 2.31550994,5.2472 L2.3034913,5.2472 C2.07673975,5.6264 1.6641,5.8544 1.22181429,5.8456 C0.553578261,5.8456 -8.01242236e-05,5.496 -8.01242236e-05,4.832 C-8.01242236e-05,3.7008 1.2618764,3.636 2.0719323,3.636 L2.28265901,3.636 L2.28265901,3.532 C2.28265901,3.036 1.97978944,2.78 1.46699441,2.78 C1.11605031,2.78 0.750683851,2.9048 0.491882609,3.152 L0.147348447,2.78 L0.146547205,2.78 Z M1.73460932,4.1168 C1.03752857,4.1168 0.588031677,4.3128 0.588031677,4.7744 C0.588031677,5.204 0.89731118,5.3664 1.31235466,5.3664 C1.94533602,5.3664 2.26823665,4.8912 2.28185776,4.336 L2.28185776,4.1168 L1.73460932,4.1168 Z" id="Fill-6" fill="#1E1E1E" fill-rule="nonzero" mask="url(#mask-5)"></path>
                </g>
            </g>
        </g>
    </g>
</svg>