<?xml version="1.0" encoding="UTF-8"?>
<svg width="80px" height="64px" viewBox="0 0 80 64" version="1.1" xmlns="http://www.w3.org/2000/svg" xmlns:xlink="http://www.w3.org/1999/xlink">
    <title>00 Logo / seat  / white</title>
    <defs>
        <polygon id="path-1" points="0 0.0245125449 79.7292561 0.0245125449 79.7292561 10.9768759 0 10.9768759"></polygon>
        <polygon id="path-3" points="0.0099621163 0.0109768808 46.4623117 0.0109768808 46.4623117 22.9794504 0.0099621163 22.9794504"></polygon>
    </defs>
    <g id="Elements" stroke="none" stroke-width="1" fill="none" fill-rule="evenodd">
        <g id="seat">
            <g id="Fill-1-Clipped" transform="translate(0.000000, 52.135455)">
                <mask id="mask-2" fill="white">
                    <use xlink:href="#path-1"></use>
                </mask>
                <g id="path-1"></g>
                <path d="M3.701855,3.8340378 C2.82613755,3.75468566 2.66691845,3.43722729 2.66691845,2.92133878 C2.66691845,2.44515124 2.9455581,2.12769287 3.62225795,2.12769287 L16.9170891,2.12769287 L16.9170891,0.0245125449 L3.26399627,0.0245125449 C1.3135687,0.0245125449 -7.490313e-06,0.778482382 -7.490313e-06,2.92133878 C-7.490313e-06,5.10387125 0.995130529,5.81816502 3.22419774,6.01657028 L14.011347,6.9292693 C14.847241,7.00862144 15.0860821,7.28640373 15.0860821,7.88164439 C15.0860821,8.43720897 14.847241,8.79434336 14.0909441,8.79434336 L0.557271797,8.79434336 L0.557271797,10.9371998 L14.3297852,10.9371998 C16.7180715,10.9371998 17.7529831,9.98479982 17.7529831,7.76259128 C17.7529831,5.73878799 16.7976686,4.905466 14.4889794,4.70703586 L3.701855,3.8340378 Z M24.3606126,6.77054012 C24.3606126,8.27847979 24.6790509,8.83401951 26.3508638,8.83401951 L38.4117408,8.83401951 L38.4117408,10.9768759 L25.6741889,10.9768759 C22.7684218,10.9768759 21.4548706,9.6673415 21.4548706,7.24672766 L21.4548706,0.103889582 L38.4117408,0.103889582 L38.4117408,2.2467211 L24.3606126,2.2467211 L24.3606126,4.38957749 L37.8544864,4.38957749 L37.8544864,6.45308175 L24.3606126,6.45308175 L24.3606126,6.77054012 Z M63.2102197,0.0642135085 L63.2102197,2.20706991 L70.0168668,2.20706991 L70.0168668,10.9768759 L72.9226339,10.9768759 L72.9226339,2.20706991 L79.7292561,2.20706991 L79.7292561,0.0642135085 L63.2102197,0.0642135085 Z M47.129042,0.0642135085 C44.2232749,0.0642135085 42.9097237,1.61182925 42.9097237,4.03246795 L42.9097237,10.9371998 L45.8154907,10.9371998 L45.8154907,7.76259128 L56.8016327,7.76259128 L56.8016327,10.9371998 L59.7073748,10.9371998 L59.7073748,0.0642135085 L47.129042,0.0642135085 Z M56.8016327,2.20706991 L56.8016327,5.65943584 L45.8154907,5.65943584 L45.8154907,4.70703586 C45.8154907,3.19912108 46.0543069,2.20706991 47.8057169,2.20706991 L56.8016327,2.20706991 Z" id="Fill-1" fill="#FFFFFF" fill-rule="nonzero" mask="url(#mask-2)"></path>
            </g>
            <g id="Group-6" transform="translate(15.780822, 0.000000)">
                <g id="Fill-4-Clipped" transform="translate(0.847673, 0.013939)">
                    <mask id="mask-4" fill="white">
                        <use xlink:href="#path-3"></use>
                    </mask>
                    <g id="path-4"></g>
                    <path d="M0.0099621163,15.0032655 C0.049760646,13.5350268 0.129382674,9.88423066 0.208979733,7.74137429 C0.28860176,5.00327723 0.885679579,3.33660838 2.00021319,2.30488114 C3.55260553,0.915994573 5.38363751,0.598536209 9.76217486,0.360454881 C19.8726243,-0.195109701 30.1820914,-0.115757556 43.1187109,0.796941463 C44.4720607,0.8763185 44.9895164,1.1540759 45.2283575,1.31280508 C45.7856368,1.70964049 45.8652589,2.14615195 46.024478,4.40803658 C46.104075,5.717571 46.3030926,9.20963787 46.3826897,11.1143881 C41.9245552,10.8762819 34.3616112,10.5191474 27.7938052,10.4397953 C21.2259741,10.3604183 15.2950444,10.4794713 14.578571,10.5588235 C13.1455742,10.7572287 12.4688993,11.4318464 12.2698818,11.7096288 L46.4623117,18.0191449 L46.4623117,22.9794504 L0.0099621163,15.0032655 Z" id="Fill-4" fill="#FFFFFF" fill-rule="nonzero" mask="url(#mask-4)"></path>
                </g>
            </g>
            <path d="M16.5986535,17.4378307 L63.0510031,26.0489323 C63.0111796,27.3187658 62.9315825,31.2870202 62.8519854,33.5886058 C62.7723634,36.3266779 62.1753106,37.9933468 61.060752,39.025099 C59.5083846,40.4139855 57.6773527,40.7314439 53.2987903,40.9695252 C43.1883409,41.5250649 32.8788738,41.4457127 19.9422543,40.5330137 C18.5889045,40.4536366 18.0714238,40.1758793 17.8326076,40.0171501 C17.2753284,39.6203147 17.1957313,39.1838281 17.0365122,36.9219186 C16.9170917,35.3743029 16.718074,30.8901848 16.638452,29.3822451 C22.6490037,29.7790805 31.8439372,30.0965389 39.3272593,30.0965389 C41.1980898,30.0965389 46.0941079,30.136215 47.4076591,30.136215 C48.4425957,30.136215 49.7959455,29.8584327 50.4726453,28.7870294 L16.5986535,23.0330778 L16.5986535,17.4378307 Z" id="Fill-7" fill="#FFFFFF" fill-rule="nonzero"></path>
        </g>
    </g>
</svg>