<?xml version="1.0" encoding="UTF-8"?>
<svg width="100px" height="69px" viewBox="0 0 100 69" version="1.1" xmlns="http://www.w3.org/2000/svg" xmlns:xlink="http://www.w3.org/1999/xlink">
    <title>00 Logo / cupra  / white</title>
    <defs>
        <filter id="filter-1">
            <feColorMatrix in="SourceGraphic" type="matrix" values="0 0 0 0 1.000000 0 0 0 0 1.000000 0 0 0 0 1.000000 0 0 0 1.000000 0"></feColorMatrix>
        </filter>
        <filter id="filter-2">
            <feColorMatrix in="SourceGraphic" type="matrix" values="0 0 0 0 1.000000 0 0 0 0 1.000000 0 0 0 0 1.000000 0 0 0 1.000000 0"></feColorMatrix>
        </filter>
    </defs>
    <g id="Elements" stroke="none" stroke-width="1" fill="none" fill-rule="evenodd">
        <g id="cupra-copy">
            <g filter="url(#filter-1)" id="#000000ff">
                <g transform="translate(20.000000, 0.000000)">
                    <path d="M0.279301617,0.304368932 C9.87828823,3.63640777 19.425909,7.12223301 29.0473682,10.3869903 C29.3876668,10.5183495 29.7247549,10.5183495 30.0650534,10.3869903 C39.6704607,7.10621359 49.2116609,3.6492233 58.7945956,0.304368932 C55.3948208,5.71252427 51.9629423,11.1014563 48.489329,16.4615534 C46.8841474,15.7727184 45.2308102,15.1992233 43.612787,14.5392233 C44.5502132,12.8924272 45.5582673,11.2840777 46.5085348,9.64368927 C43.4137445,11.1975728 40.264378,12.6425243 37.1920602,14.2412621 C39.3397933,15.0582525 41.4907369,15.8592233 43.6224181,16.7210679 C44.8102526,17.2048543 46.0847669,18.1371844 46.165026,19.5276699 C46.3544374,21.0719417 45.2982278,22.3342718 44.5502132,23.5709709 C39.9208691,30.7989321 35.317208,38.0461165 30.6653914,45.2612621 C30.6910743,43.3581553 30.4727696,41.4358252 30.697495,39.545534 C32.5274022,33.7497088 34.3348368,27.9474757 36.0010154,22.1035922 C36.3284724,21.2353398 35.3557323,20.7707767 34.7297114,20.4664078 C32.9640116,19.6878641 31.3106744,18.6562136 29.5032398,17.9898058 C27.6701223,18.7811651 25.9108431,19.7391262 24.1130397,20.6073786 C23.5576468,20.8636893 22.774318,21.3699029 23.092144,22.0939806 C24.7454812,27.9410679 26.572178,33.740097 28.3892437,39.5391262 C28.5914966,41.4326214 28.3988748,43.3549515 28.4085059,45.2612621 C23.8305277,38.1101942 19.2621805,30.9495146 14.690623,23.7952427 C13.8944529,22.4784466 12.7387221,21.1328155 12.9377646,19.4892233 C13.0437065,18.1083495 14.3118001,17.1920389 15.4996345,16.7114563 C17.6120537,15.8528156 19.7565765,15.0678641 21.8850475,14.2380583 C18.8191504,12.6457281 15.6826253,11.1879611 12.5910454,9.64689321 C13.5381026,11.2872816 14.5461567,12.8924272 15.4803724,14.5424272 C13.8527181,15.1896116 12.2058017,15.7887379 10.5845682,16.4519417 C7.12379643,11.0854369 3.69833866,5.69330097 0.279301617,0.304368932 Z" id="Path" fill="#242528" fill-rule="nonzero"></path>
                    <path d="M20.6201643,65.7404854 C20.6522679,62.5814563 20.5976917,59.4256311 20.6490575,56.266602 C25.8562669,56.3018447 31.0666868,56.2569903 36.2738963,56.2858252 C37.2915815,56.2505825 38.4794159,56.76 38.6816689,57.8557281 C38.806873,58.9290291 38.7779797,60.0183495 38.700931,61.0916505 C38.6367238,62.2770874 37.3911028,62.9947573 36.2931584,62.9178641 C32.0458476,62.9274757 27.7985368,62.9114563 23.5480157,62.9210679 C23.5512261,63.8694175 23.5544364,64.8145631 23.5672779,65.7629126 C22.5849067,65.7885437 21.6025355,65.7757281 20.6201643,65.7404854 M23.5383845,58.41 C23.5512261,59.1468932 23.5576468,59.8837864 23.5736985,60.6238835 C27.6059151,60.5854369 31.6381315,60.6591262 35.670348,60.5886407 C36.4023108,60.1657281 35.9047044,59.1500971 36.0427501,58.4708738 C31.8789088,58.3299029 27.7054363,58.4420389 23.5383845,58.41 Z" id="Shape" fill="#000000" fill-rule="nonzero"></path>
                </g>
            </g>
            <g filter="url(#filter-2)" id="#010101ff">
                <g transform="translate(0.000000, 56.000000)">
                    <path d="M0.370607028,1.64271845 C0.785942492,0.708561342 1.86261981,0.187466902 2.86261981,0.209708738 C7.94249201,0.196999117 13.0223642,0.216063548 18.1054313,0.203353927 C18.115016,1.06760812 18.1182108,1.93503972 18.1246006,2.79929391 C13.1469649,2.83424536 8.16293929,2.75481024 3.1884984,2.83742277 C3.09584664,2.91050309 2.91373802,3.05984113 2.82108627,3.13609885 C2.76357828,4.37846425 2.83386582,5.62718446 2.78274761,6.87272727 C3.23322683,6.98393645 3.69009584,7.09832304 4.15974441,7.07925861 C8.8115016,7.06654898 13.4632588,7.08561342 18.115016,7.06654898 C18.1182108,7.90220653 18.1214058,8.73786408 18.1214058,9.57352164 C13.2492013,9.71332745 8.37060703,9.59258609 3.49840256,9.64342455 C2.30351438,9.69108564 0.821086262,9.46231245 0.348242812,8.1913504 C0.089456869,7.06654898 0.268370607,5.90044131 0.220447284,4.75975287 C0.236421726,3.7239188 0.0830670927,2.65631068 0.370607028,1.64271845 Z" id="Path" fill="#242528" fill-rule="nonzero"></path>
                    <path d="M20.5463259,7.31120918 C20.5367412,4.94086496 20.5303515,2.57052075 20.5591054,0.203353927 C21.600639,0.206531333 22.6453674,0.200176523 23.6900959,0.219240954 C23.7252396,2.49108561 23.6517572,4.76610768 23.7348243,7.03795234 C27.600639,7.11421006 31.4696485,7.06972639 35.3354633,7.06337158 C35.4952077,4.7819947 35.3738019,2.49426302 35.4089457,0.212886143 C36.4632588,0.206531333 37.5175719,0.209708738 38.571885,0.196999117 C38.5942492,2.56416593 38.600639,4.93451015 38.5782748,7.30485437 C38.5910543,8.57581642 37.3801917,9.63706973 36.1309905,9.61482791 C32.5015974,9.72285964 28.8690095,9.57987645 25.2364217,9.64342455 C24.1884984,9.64024709 23.1214058,9.70379527 22.0958466,9.44642545 C21.2268371,9.12233009 20.4984026,8.26760812 20.5463259,7.31120918 Z" id="Path" fill="#242528" fill-rule="nonzero"></path>
                    <path d="M61.4185304,0.203353927 C66.5079872,0.216063548 71.5974441,0.203353927 76.6869009,0.206531333 C77.7859425,0.184289497 79.0798722,0.753045014 79.3546326,1.90644307 C79.4313099,2.96451897 79.428115,4.0321271 79.3514377,5.090203 C79.1916933,5.97987644 78.4025559,6.44695499 77.6805112,6.86001765 C78.3706071,7.73062665 78.9840256,8.65525155 79.6038339,9.576699 C78.3450479,9.49726391 76.4345048,10.2471315 75.7316294,8.83000883 C75.3099041,8.16275375 74.9105431,7.48278905 74.5015974,6.80917917 C71.1373802,6.78058253 67.7731629,6.79646955 64.4089457,6.79964695 C64.4153355,7.72109444 64.4185304,8.64254193 64.428115,9.56716682 C63.4217252,9.65613418 62.4121406,9.65931155 61.4089457,9.59258609 C61.4249201,6.46284201 61.3961661,3.33309797 61.4185304,0.203353927 M64.4408946,2.21782877 C64.4153355,2.980406 64.4153355,3.74616064 64.4185304,4.50873786 C68.3929713,4.48014122 72.3706071,4.56275375 76.341853,4.470609 C76.4408946,4.40070609 76.6389776,4.25772286 76.741214,4.18464255 C76.6837061,3.54280671 77.0702875,2.57369815 76.2971246,2.25595764 C72.3482428,2.1733451 68.3929713,2.25278023 64.4408946,2.21782877 Z" id="Shape" fill="#242528" fill-rule="nonzero"></path>
                    <path d="M81.8466454,2.53874669 C81.8051118,1.10573698 83.3099041,0.108031774 84.6453674,0.206531333 C89.6869009,0.203353927 94.7284349,0.216063548 99.7699679,0.200176523 C99.7859422,3.32992056 99.8242807,6.46284201 99.7316294,9.59258609 C98.8562303,9.63071491 97.9712459,9.71332745 97.0990413,9.60529564 C96.7028752,8.78234775 97.0383385,7.70838482 96.9424917,6.79646955 C92.8913734,6.79329215 88.8402556,6.79646955 84.7891373,6.79329215 C84.7827476,7.73380406 84.7891373,8.67749338 84.7955272,9.62118273 C83.8146965,9.64660191 82.8370607,9.63389236 81.859425,9.59258609 C81.8881789,7.24130626 81.798722,4.89002648 81.8466454,2.53874669 M84.801917,2.35127979 C84.7891373,3.07255075 84.7923323,3.79382171 84.8051118,4.51827008 C88.8434505,4.49602825 92.8849844,4.51191527 96.9265174,4.50873786 C96.9329073,3.78111209 96.9361018,3.05666373 96.9456872,2.32903795 C92.8977633,2.32903795 88.8498403,2.28773168 84.801917,2.35127979 Z" id="Shape" fill="#242528" fill-rule="nonzero"></path>
                </g>
            </g>
        </g>
    </g>
</svg>